<svg width="36" height="36" viewBox="0 0 36 36" fill="none" xmlns="http://www.w3.org/2000/svg">
<g id="google">
<path id="Vector" fill-rule="evenodd" clip-rule="evenodd" d="M18 1.875C9.09441 1.875 1.875 9.09441 1.875 18C1.875 26.9056 9.09441 34.125 18 34.125C26.9056 34.125 34.125 26.9056 34.125 18C34.125 9.09441 26.9056 1.875 18 1.875ZM12 18C12 14.6863 14.6863 12 18 12C19.6572 12 21.1552 12.6699 22.2426 13.7574C22.8285 14.3432 23.7781 14.3432 24.3639 13.7574C24.9498 13.1716 24.9498 12.2218 24.3639 11.636C22.7368 10.009 20.4849 9 18 9C13.0294 9 9 13.0294 9 18C9 22.9706 13.0294 27 18 27C22.9706 27 27 22.9706 27 18C27 17.1715 26.3284 16.5 25.5 16.5H18C17.1715 16.5 16.5 17.1715 16.5 18C16.5 18.8284 17.1715 19.5 18 19.5H23.811C23.1448 22.0878 20.7957 24 18 24C14.6863 24 12 21.3137 12 18Z" fill="#141B34"/>
</g>
</svg>
